<svg width="120" height="68" viewBox="0 0 120 68" fill="none" xmlns="http://www.w3.org/2000/svg">
<path d="M18.1807 35.5622C19.242 32.144 24.0793 32.144 25.1406 35.5622C25.7446 37.5071 27.5595 38.8288 29.5918 38.8288C33.1996 38.8291 34.7651 43.3994 31.9219 45.5612L31.6172 45.7926C30.0145 47.0111 29.3455 49.1023 29.9424 51.0251L30.1006 51.5348C31.1446 54.8972 27.2588 57.6186 24.4561 55.4879C22.8043 54.2322 20.517 54.2322 18.8652 55.4879C16.0625 57.6186 12.1767 54.8972 13.2207 51.5348L13.3789 51.0251C13.9758 49.1023 13.3067 47.0111 11.7041 45.7926L11.3994 45.5612C8.55621 43.3994 10.1217 38.8291 13.7295 38.8288C15.7618 38.8288 17.5767 37.5071 18.1807 35.5622Z" fill="#FFD600" stroke="black"/>
<path d="M94.8594 35.5622C95.9207 32.144 100.758 32.144 101.819 35.5622C102.423 37.5071 104.238 38.8288 106.271 38.8288C109.878 38.8291 111.444 43.3994 108.601 45.5612L108.296 45.7926C106.693 47.0111 106.024 49.1023 106.621 51.0251L106.779 51.5348C107.823 54.8972 103.938 57.6186 101.135 55.4879C99.483 54.2322 97.1957 54.2322 95.5439 55.4879C92.7412 57.6186 88.8554 54.8972 89.8994 51.5348L90.0576 51.0251C90.6545 49.1023 89.9855 47.0111 88.3828 45.7926L88.0781 45.5612C85.2349 43.3994 86.8004 38.8291 90.4082 38.8288C92.4405 38.8288 94.2554 37.5071 94.8594 35.5622Z" fill="white" stroke="black"/>
<path d="M57.603 12.8955C58.6644 9.47732 63.5016 9.47732 64.563 12.8955C65.167 14.8404 66.9819 16.1621 69.0142 16.1621C72.6219 16.1624 74.1875 20.7327 71.3442 22.8945L71.0396 23.126C69.4369 24.3445 68.7679 26.4357 69.3647 28.3584L69.5229 28.8682C70.567 32.2306 66.6812 34.9519 63.8784 32.8213C62.2267 31.5655 59.9393 31.5655 58.2876 32.8213C55.4848 34.9519 51.599 32.2306 52.6431 28.8682L52.8013 28.3584C53.3982 26.4357 52.7291 24.3445 51.1265 23.126L50.8218 22.8945C47.9786 20.7327 49.5441 16.1624 53.1519 16.1621C55.1841 16.1621 56.9991 14.8404 57.603 12.8955Z" fill="white" stroke="black"/>
</svg>
