<svg width="277" height="150" viewBox="0 0 277 150" fill="none" xmlns="http://www.w3.org/2000/svg">
<path d="M45.7207 64.79C47.0678 60.6441 52.9322 60.6441 54.2793 64.79L59.6279 81.249C60.3643 83.5149 62.4758 85.0488 64.8584 85.0488H82.1641C86.5232 85.0488 88.336 90.6271 84.8096 93.1895L70.8086 103.362C68.8811 104.763 68.0745 107.245 68.8105 109.511L74.1582 125.97C75.5053 130.116 70.7601 133.563 67.2334 131.001L53.2324 120.829C51.3048 119.429 48.6952 119.429 46.7676 120.829L32.7666 131.001C29.2399 133.563 24.4947 130.116 25.8418 125.97L31.1895 109.511C31.9255 107.245 31.1189 104.763 29.1914 103.362L15.1904 93.1895C11.664 90.6271 13.4768 85.0488 17.8359 85.0488H35.1416C37.5242 85.0488 39.6357 83.515 40.3721 81.249L45.7207 64.79Z" fill="#FFD600" stroke="black"/>
<path d="M222.721 64.79C224.068 60.6441 229.932 60.6441 231.279 64.79L236.628 81.249C237.364 83.5149 239.476 85.0488 241.858 85.0488H259.164C263.523 85.0488 265.336 90.6271 261.81 93.1895L247.809 103.362C245.881 104.763 245.074 107.245 245.811 109.511L251.158 125.97C252.505 130.116 247.76 133.563 244.233 131.001L230.232 120.829C228.305 119.429 225.695 119.429 223.768 120.829L209.767 131.001C206.24 133.563 201.495 130.116 202.842 125.97L208.189 109.511C208.926 107.245 208.119 104.763 206.191 103.362L192.19 93.1895C188.664 90.6271 190.477 85.0488 194.836 85.0488H212.142C214.524 85.0488 216.636 83.515 217.372 81.249L222.721 64.79Z" fill="white" stroke="black"/>
<path d="M136.721 14.79C138.068 10.6441 143.932 10.6441 145.279 14.79L150.628 31.249C151.364 33.5149 153.476 35.0488 155.858 35.0488H173.164C177.523 35.0488 179.336 40.6271 175.81 43.1895L161.809 53.3623C159.881 54.7628 159.074 57.2448 159.811 59.5107L165.158 75.9697C166.505 80.1156 161.76 83.5633 158.233 81.001L144.232 70.8291C142.305 69.4288 139.695 69.4288 137.768 70.8291L123.767 81.001C120.24 83.5633 115.495 80.1156 116.842 75.9697L122.189 59.5107C122.926 57.2448 122.119 54.7628 120.191 53.3623L106.19 43.1895C102.664 40.6271 104.477 35.0488 108.836 35.0488H126.142C128.524 35.0488 130.636 33.515 131.372 31.249L136.721 14.79Z" fill="#FFD600" stroke="black"/>
</svg>
