<svg width="116" height="71" viewBox="0 0 116 71" fill="none" xmlns="http://www.w3.org/2000/svg">
<path d="M17.5547 37.2477C18.5315 33.8505 23.3454 33.8506 24.3223 37.2477C24.8792 39.1851 26.6522 40.5202 28.668 40.5202H28.8701C32.4279 40.5205 34.024 44.98 31.2744 47.238L30.4609 47.9069C28.9514 49.1467 28.3236 51.1653 28.8633 53.0427L29.2607 54.4274C30.1954 57.6789 26.3753 60.1907 23.7607 58.0436C22.1204 56.6967 19.7565 56.6966 18.1162 58.0436C15.5017 60.1906 11.6815 57.6789 12.6162 54.4274L13.0146 53.0427C13.5543 51.1652 12.9256 49.1467 11.416 47.9069L10.6025 47.238C7.85293 44.98 9.44986 40.5202 13.0078 40.5202H13.21C15.2257 40.5201 16.9978 39.185 17.5547 37.2477Z" fill="#FFD600" stroke="black"/>
<path d="M91.6775 37.2477C92.6543 33.8505 97.4682 33.8506 98.4451 37.2477C99.002 39.1851 100.775 40.5202 102.791 40.5202H102.993C106.551 40.5205 108.147 44.98 105.397 47.238L104.584 47.9069C103.074 49.1467 102.446 51.1653 102.986 53.0427L103.384 54.4274C104.318 57.6789 100.498 60.1907 97.8835 58.0436C96.2432 56.6967 93.8793 56.6966 92.239 58.0436C89.6245 60.1906 85.8043 57.6789 86.739 54.4274L87.1375 53.0427C87.6771 51.1652 87.0485 49.1467 85.5388 47.9069L84.7253 47.238C81.9757 44.98 83.5727 40.5202 87.1306 40.5202H87.3328C89.3485 40.5201 91.1206 39.185 91.6775 37.2477Z" fill="#FFD600" stroke="black"/>
<path d="M55.6631 13.5811C56.6399 10.1838 61.4538 10.1839 62.4307 13.5811C62.9876 15.5184 64.7606 16.8535 66.7764 16.8535H66.9785C70.5363 16.8538 72.1324 21.3133 69.3828 23.5713L68.5693 24.2402C67.0598 25.48 66.432 27.4986 66.9717 29.376L67.3691 30.7607C68.3038 34.0122 64.4837 36.524 61.8691 34.377C60.2288 33.03 57.8649 33.0299 56.2246 34.377C53.6101 36.5239 49.7899 34.0122 50.7246 30.7607L51.123 29.376C51.6627 27.4986 51.034 25.48 49.5244 24.2402L48.7109 23.5713C45.9613 21.3133 47.5583 16.8535 51.1162 16.8535H51.3184C53.3341 16.8534 55.1062 15.5183 55.6631 13.5811Z" fill="#FFD600" stroke="black"/>
</svg>
